<svg width="24" height="24" viewBox="0 0 24 24" fill="none" xmlns="http://www.w3.org/2000/svg">
<g id="Icons">
<path id="Vector" d="M23.5319 11.5434C23.4972 11.4675 22.6759 9.64406 20.8619 7.83C18.4347 5.40656 15.3756 4.125 12.0006 4.125C8.62561 4.125 5.56655 5.40656 3.14217 7.83C1.32811 9.64406 0.506862 11.4675 0.469362 11.5434C0.40585 11.6874 0.373047 11.8431 0.373047 12.0005C0.373047 12.1579 0.40585 12.3135 0.469362 12.4575C0.50405 12.5344 1.3253 14.3569 3.1403 16.1709C5.56655 18.5944 8.62561 19.875 12.0006 19.875C15.3756 19.875 18.4347 18.5944 20.8581 16.1709C22.6731 14.3569 23.4944 12.5344 23.529 12.4575C23.593 12.3137 23.6263 12.1581 23.6268 12.0008C23.6273 11.8434 23.5949 11.6876 23.5319 11.5434ZM19.2137 14.6372C17.2009 16.6191 14.7747 17.625 12.0006 17.625C9.22655 17.625 6.8003 16.6191 4.7903 14.6362C3.99937 13.8537 3.31903 12.9667 2.76811 12C3.31918 11.0337 3.99952 10.1471 4.7903 9.36469C6.80124 7.38094 9.22655 6.375 12.0006 6.375C14.7747 6.375 17.2 7.38094 19.2109 9.36469C20.0018 10.147 20.6821 11.0336 21.2331 12C20.6821 12.9666 20.0018 13.8536 19.2109 14.6362L19.2137 14.6372ZM12.0006 7.875C11.1848 7.875 10.3872 8.11693 9.70889 8.57019C9.03053 9.02345 8.50182 9.66769 8.18961 10.4214C7.8774 11.1752 7.79571 12.0046 7.95487 12.8047C8.11404 13.6049 8.50691 14.3399 9.0838 14.9168C9.66069 15.4937 10.3957 15.8866 11.1959 16.0457C11.996 16.2049 12.8254 16.1232 13.5792 15.811C14.3329 15.4988 14.9772 14.9701 15.4304 14.2917C15.8837 13.6134 16.1256 12.8158 16.1256 12C16.1244 10.9064 15.6894 9.85787 14.9161 9.08455C14.1427 8.31124 13.0942 7.87624 12.0006 7.875ZM12.0006 13.875C11.6298 13.875 11.2673 13.765 10.9589 13.559C10.6506 13.353 10.4103 13.0601 10.2683 12.7175C10.1264 12.3749 10.0893 11.9979 10.1616 11.6342C10.234 11.2705 10.4126 10.9364 10.6748 10.6742C10.937 10.412 11.2711 10.2334 11.6348 10.161C11.9985 10.0887 12.3755 10.1258 12.7181 10.2677C13.0608 10.4096 13.3536 10.65 13.5596 10.9583C13.7656 11.2666 13.8756 11.6292 13.8756 12C13.8756 12.4973 13.6781 12.9742 13.3264 13.3258C12.9748 13.6775 12.4979 13.875 12.0006 13.875Z" fill="#0F0F0F"/>
</g>
</svg>
