<svg width="276" height="31" viewBox="0 0 276 31" fill="none" xmlns="http://www.w3.org/2000/svg">
<path fill-rule="evenodd" clip-rule="evenodd" d="M167.963 30.177V0.104431H174.266V30.177H167.963ZM206.05 30.1769V15.4306H201.518V10.0457H206.05V1.71986H212.354V10.0457H216.886V15.4306H212.354V30.1769H206.05ZM267.43 30.674C266.249 30.674 265.082 30.5222 263.928 30.2184C262.802 29.9146 261.745 29.4866 260.756 28.9343C259.795 28.3544 258.971 27.6916 258.284 26.946L261.868 23.3009C262.528 24.0189 263.31 24.585 264.217 24.9992C265.123 25.3858 266.112 25.5791 267.183 25.5791C267.925 25.5791 268.488 25.4686 268.872 25.2477C269.284 25.0268 269.49 24.723 269.49 24.3364C269.49 23.8394 269.243 23.4666 268.749 23.218C268.282 22.9419 267.677 22.7072 266.936 22.5139C266.194 22.2929 265.412 22.0582 264.588 21.8097C263.764 21.5611 262.981 21.216 262.239 20.7741C261.498 20.3323 260.893 19.7248 260.426 18.9515C259.96 18.1507 259.726 17.1428 259.726 15.9277C259.726 14.6298 260.056 13.5114 260.715 12.5725C261.374 11.606 262.308 10.8466 263.516 10.2943C264.725 9.742 266.139 9.46585 267.76 9.46585C269.463 9.46585 271.028 9.76962 272.457 10.3771C273.912 10.9571 275.093 11.8269 276 12.9867L272.415 16.6319C271.784 15.8863 271.07 15.3616 270.273 15.0579C269.504 14.7541 268.749 14.6022 268.007 14.6022C267.293 14.6022 266.757 14.7127 266.4 14.9336C266.043 15.1269 265.865 15.4168 265.865 15.8035C265.865 16.2177 266.098 16.5491 266.565 16.7976C267.032 17.0461 267.636 17.267 268.378 17.4603C269.119 17.6537 269.902 17.8884 270.726 18.1645C271.55 18.4407 272.333 18.8135 273.075 19.2829C273.816 19.7524 274.42 20.3875 274.887 21.1883C275.354 21.9616 275.588 22.9833 275.588 24.2536C275.588 26.2142 274.846 27.7745 273.363 28.9343C271.907 30.0941 269.93 30.674 267.43 30.674ZM242.999 30.177V10.0457H249.302V11.5784C250.538 10.2805 252.255 9.63153 254.452 9.63153C255.413 9.63153 256.251 9.78341 256.965 10.0872C257.707 10.3633 258.352 10.8052 258.901 11.4127L255.152 16.1762C254.878 15.8725 254.534 15.6378 254.122 15.4721C253.71 15.3064 253.243 15.2235 252.722 15.2235C251.678 15.2235 250.84 15.5549 250.208 16.2177C249.604 16.8528 249.302 17.8193 249.302 19.1172V30.177H242.999ZM223.298 29.2657C224.974 30.177 226.842 30.6326 228.902 30.6326C230.989 30.6326 232.857 30.177 234.505 29.2657C236.153 28.3268 237.457 27.0565 238.419 25.4548C239.38 23.8532 239.861 22.0582 239.861 20.0699C239.861 18.0817 239.38 16.3005 238.419 14.7265C237.457 13.1248 236.153 11.8683 234.505 10.957C232.857 10.0458 230.989 9.59011 228.902 9.59011C226.814 9.59011 224.946 10.0596 223.298 10.9985C221.651 11.9097 220.346 13.1524 219.385 14.7265C218.423 16.3005 217.943 18.0817 217.943 20.0699C217.943 22.0582 218.423 23.8532 219.385 25.4548C220.346 27.0565 221.651 28.3268 223.298 29.2657ZM231.291 24.295C230.604 24.6816 229.808 24.8749 228.902 24.8749C228.023 24.8749 227.24 24.6816 226.553 24.295C225.867 23.8808 225.331 23.3147 224.946 22.5967C224.562 21.8511 224.37 21.0226 224.37 20.1114C224.37 19.1725 224.562 18.344 224.946 17.626C225.331 16.908 225.867 16.3557 226.553 15.9691C227.24 15.5549 228.023 15.3478 228.902 15.3478C229.808 15.3478 230.591 15.5549 231.25 15.9691C231.937 16.3557 232.472 16.908 232.857 17.626C233.241 18.3164 233.433 19.131 233.433 20.0699C233.433 21.0088 233.241 21.8511 232.857 22.5967C232.5 23.3147 231.978 23.8808 231.291 24.295ZM182.125 29.2242C183.581 30.1355 185.228 30.5912 187.069 30.5912C188.415 30.5912 189.637 30.3288 190.735 29.8042C191.445 29.4652 192.063 29.0457 192.589 28.5454V30.177H198.769V10.0457H192.589V11.7175C192.046 11.1955 191.414 10.7625 190.694 10.4185C189.623 9.89387 188.415 9.63153 187.069 9.63153C185.228 9.63153 183.581 10.0872 182.125 10.9985C180.697 11.9097 179.557 13.1524 178.705 14.7265C177.881 16.3005 177.469 18.0955 177.469 20.1114C177.469 22.1272 177.881 23.9222 178.705 25.4962C179.557 27.0703 180.697 28.313 182.125 29.2242ZM191.601 23.5494C190.777 24.4331 189.692 24.8749 188.346 24.8749C187.494 24.8749 186.725 24.6678 186.039 24.2536C185.352 23.8394 184.816 23.2733 184.432 22.5553C184.047 21.8373 183.855 21.0226 183.855 20.1114C183.855 19.1724 184.047 18.344 184.432 17.626C184.844 16.908 185.38 16.3557 186.039 15.9691C186.725 15.5549 187.508 15.3478 188.387 15.3478C189.266 15.3478 190.035 15.5549 190.694 15.9691C191.381 16.3557 191.903 16.908 192.26 17.626C192.644 18.344 192.837 19.1724 192.837 20.1114C192.837 21.4921 192.425 22.6381 191.601 23.5494ZM152.884 30.2184C154.038 30.5222 155.205 30.674 156.386 30.674C158.885 30.674 160.863 30.0941 162.319 28.9343C163.802 27.7745 164.543 26.2142 164.543 24.2536C164.543 22.9833 164.31 21.9616 163.843 21.1883C163.376 20.3875 162.772 19.7524 162.03 19.2829C161.289 18.8135 160.506 18.4407 159.682 18.1645C158.858 17.8884 158.075 17.6537 157.334 17.4603C156.592 17.267 155.988 17.0461 155.521 16.7976C155.054 16.5491 154.82 16.2177 154.82 15.8035C154.82 15.4168 154.999 15.1269 155.356 14.9336C155.713 14.7127 156.249 14.6022 156.963 14.6022C157.704 14.6022 158.46 14.7541 159.229 15.0579C160.025 15.3616 160.739 15.8863 161.371 16.6319L164.955 12.9867C164.049 11.8269 162.868 10.9571 161.412 10.3771C159.984 9.76962 158.419 9.46585 156.716 9.46585C155.095 9.46585 153.681 9.742 152.472 10.2943C151.264 10.8466 150.33 11.606 149.671 12.5725C149.011 13.5114 148.682 14.6298 148.682 15.9277C148.682 17.1428 148.915 18.1507 149.382 18.9515C149.849 19.7248 150.453 20.3323 151.195 20.7741C151.937 21.216 152.719 21.5611 153.543 21.8097C154.367 22.0582 155.15 22.2929 155.892 22.5139C156.633 22.7072 157.238 22.9419 157.704 23.218C158.199 23.4666 158.446 23.8394 158.446 24.3364C158.446 24.723 158.24 25.0268 157.828 25.2477C157.444 25.4686 156.88 25.5791 156.139 25.5791C155.068 25.5791 154.079 25.3858 153.173 24.9992C152.266 24.585 151.483 24.0189 150.824 23.3009L147.24 26.946C147.927 27.6916 148.75 28.3544 149.712 28.9343C150.701 29.4866 151.758 29.9146 152.884 30.2184ZM138.742 30.177V18.703C138.742 17.6536 138.412 16.8114 137.753 16.1762C137.121 15.5135 136.311 15.1821 135.322 15.1821C134.635 15.1821 134.031 15.334 133.509 15.6378C132.987 15.9139 132.575 16.3281 132.273 16.8804C131.971 17.4051 131.82 18.0126 131.82 18.703V30.177H125.517V10.0457H131.82V11.6229C132.25 11.2372 132.731 10.9048 133.262 10.6257C134.498 9.9629 135.885 9.63153 137.423 9.63153C138.906 9.63153 140.211 9.99052 141.337 10.7085C142.491 11.3989 143.397 12.324 144.056 13.4838C144.715 14.6436 145.045 15.9139 145.045 17.2946V30.177H138.742ZM104.434 29.2242C105.89 30.1355 107.538 30.5912 109.378 30.5912C110.724 30.5912 111.946 30.3288 113.045 29.8042C113.754 29.4652 114.372 29.0457 114.899 28.5454V30.177H121.079V10.0457H114.899V11.7175C114.355 11.1955 113.724 10.7625 113.004 10.4185C111.932 9.89387 110.724 9.63153 109.378 9.63153C107.538 9.63153 105.89 10.0872 104.434 10.9985C103.006 11.9097 101.866 13.1524 101.015 14.7265C100.191 16.3005 99.7786 18.0955 99.7786 20.1114C99.7786 22.1272 100.191 23.9222 101.015 25.4962C101.866 27.0703 103.006 28.313 104.434 29.2242ZM113.91 23.5494C113.086 24.4331 112.001 24.8749 110.655 24.8749C109.804 24.8749 109.035 24.6678 108.348 24.2536C107.661 23.8394 107.126 23.2733 106.741 22.5553C106.357 21.8373 106.164 21.0226 106.164 20.1114C106.164 19.1724 106.357 18.344 106.741 17.626C107.153 16.908 107.689 16.3557 108.348 15.9691C109.035 15.5549 109.817 15.3478 110.696 15.3478C111.575 15.3478 112.344 15.5549 113.004 15.9691C113.69 16.3557 114.212 16.908 114.569 17.626C114.954 18.344 115.146 19.1724 115.146 20.1114C115.146 21.4921 114.734 22.6381 113.91 23.5494ZM83.9958 30.177V10.0457H90.2992V11.5784C91.5352 10.2805 93.2518 9.63153 95.4491 9.63153C96.4104 9.63153 97.2481 9.78341 97.9623 10.0872C98.7038 10.3633 99.3493 10.8052 99.8986 11.4127L96.1495 16.1762C95.8748 15.8725 95.5315 15.6378 95.1195 15.4721C94.7075 15.3064 94.2406 15.2235 93.7187 15.2235C92.675 15.2235 91.8373 15.5549 91.2056 16.2177C90.6014 16.8528 90.2992 17.8193 90.2992 19.1172V30.177H83.9958ZM69.3706 6.60775V30.177H75.8389V6.60775H84.9439V0.9329H60.2656V6.60775H69.3706Z" fill="url(#paint0_linear_315_9550)"/>
<path d="M7.2148 29.2183C7.2148 30.0223 7.86089 30.674 8.65776 30.674H11.5437C12.3405 30.674 12.9866 30.0223 12.9866 29.2183V26.4264C12.9866 26.0165 13.1578 25.6257 13.4587 25.3498L23.4897 16.1402C24.3591 15.2567 25.0883 14.4616 25.6774 13.7548C26.2755 13.0479 26.7293 12.3559 27.0379 11.6785C27.3465 10.9913 27.5008 10.2501 27.5008 9.45495C27.5008 8.57144 27.3091 7.81063 26.9259 7.17252C26.5419 6.52463 26.0184 6.02886 25.3547 5.68528C24.691 5.33193 23.9385 5.15521 23.0972 5.15521C22.2186 5.15521 21.452 5.3417 20.7975 5.71478C20.143 6.08776 19.6385 6.62281 19.2827 7.31983C19.2066 7.46918 19.1389 7.62458 19.0791 7.7861C19.0107 7.97091 18.9529 8.16362 18.9057 8.36442C18.7225 9.14673 18.1039 9.80839 17.3071 9.80839H14.4296C13.6327 9.80839 12.9754 9.15419 13.0691 8.3558C13.2297 6.98211 13.6278 5.75325 14.2626 4.66929C15.1137 3.21635 16.3052 2.09233 17.8383 1.29713C19.3715 0.502029 21.1385 0.104431 23.1395 0.104431C25.1961 0.104431 26.9864 0.48728 28.5104 1.25298C30.0436 2.0089 31.235 3.05927 32.0861 4.40417C32.9365 5.74907 33.1881 7.1113 33.1881 8.84891C33.1881 9.98768 33.1472 11.2907 32.7167 12.4C32.2961 13.5093 31.5436 14.7414 30.4593 16.096C28.6161 18.3817 26.525 20.4825 24.4415 22.5758L23.6623 23.3595C22.7647 24.2639 23.4023 25.7829 24.6705 25.7829H31.7451C32.542 25.7829 33.1881 26.4346 33.1881 27.2386V29.2183C33.1881 30.0223 33.8342 30.674 34.631 30.674H43.3247C48.5463 30.674 52.4362 28.275 53.243 23.4393C53.3782 22.627 52.7124 21.9399 51.8958 21.9399H48.9768C48.213 21.9399 47.6092 22.5515 47.3838 23.2872C46.5094 26.1364 43.4551 26.8563 40.5381 25.6034C36.9667 24.0689 37.3345 19.185 40.6819 17.7284C42.0826 17.1124 44.3393 17.1029 46.1747 17.1293C46.9716 17.1407 47.6177 16.4956 47.6177 15.6916V14.4476C47.6177 13.6436 46.9716 12.9919 46.1747 12.9919H43.8708C42.8463 12.9919 41.9508 12.8127 41.1849 12.4543C40.4092 12.096 39.8012 11.5923 39.3608 10.9432C38.9205 10.2846 38.7049 9.52425 38.7147 8.66215C38.7049 7.81951 38.8916 7.0882 39.2749 6.4683C41.2378 3.15816 46.1648 4.14642 47.3584 7.46207C47.624 8.19925 48.2356 8.8386 49.0127 8.8386H51.9127C52.723 8.8386 53.3853 8.16309 53.2641 7.3551C53.0865 6.1743 52.7131 5.03189 52.0713 4.14358C51.1525 2.87464 49.9265 1.88665 48.3948 1.17959C46.8624 0.462846 45.1439 0.104431 43.2388 0.104431H23.1395H8.44498C7.83341 0.104431 7.29864 0.499008 7.03161 1.0544C5.88105 3.45358 3.76029 5.23153 1.31473 5.85498C0.584793 6.04112 0 6.65968 0 7.41934V8.8386C0 9.6426 0.646091 10.2943 1.44296 10.2943H5.77184C6.56871 10.2943 7.2148 10.946 7.2148 11.75V29.2183Z" fill="#3C0822"/>
<defs>
<linearGradient id="paint0_linear_315_9550" x1="168.133" y1="0.104431" x2="168.133" y2="30.674" gradientUnits="userSpaceOnUse">
<stop stop-color="#F363AA"/>
<stop offset="1" stop-color="#E471C9"/>
</linearGradient>
</defs>
</svg>
