<svg width="24" height="24" viewBox="0 0 24 24" fill="none" xmlns="http://www.w3.org/2000/svg">
<g clip-path="url(#clip0_4170_1815)">
<path d="M23 18.9998V16.9998C22.9964 14.2571 21.9692 11.6145 20.1196 9.58939C18.27 7.56425 15.7311 6.30237 13 6.05077V4.72277C13.3813 4.50264 13.6793 4.16284 13.8478 3.75609C14.0162 3.34933 14.0458 2.89835 13.9319 2.47308C13.8179 2.04782 13.5668 1.67203 13.2175 1.40402C12.8682 1.136 12.4403 0.990723 12 0.990723C11.5597 0.990723 11.1318 1.136 10.7825 1.40402C10.4332 1.67203 10.1821 2.04782 10.0681 2.47308C9.9542 2.89835 9.98376 3.34933 10.1522 3.75609C10.3207 4.16284 10.6187 4.50264 11 4.72277V6.05077C8.26889 6.30237 5.73002 7.56425 3.88041 9.58939C2.0308 11.6145 1.00363 14.2571 1 16.9998V18.9998H0V20.9998H24V18.9998H23ZM3 16.9998C3.473 5.06577 20.531 5.07477 21 16.9998V18.9998H3V16.9998Z" fill="#2D32A7"/>
</g>
<defs>
<clipPath id="clip0_4170_1815">
<rect width="24" height="24" fill="white"/>
</clipPath>
</defs>
</svg>
