<svg width="109" height="14" viewBox="0 0 109 14" fill="none" xmlns="http://www.w3.org/2000/svg">
<path fill-rule="evenodd" clip-rule="evenodd" d="M66.1289 12.7785V0.938583H68.6107V12.7785H66.1289ZM81.1245 12.7785V6.97268H79.3402V4.85258H81.1245V1.57459H83.6062V4.85258H85.3905V6.97268H83.6062V12.7785H81.1245ZM105.29 12.9742C104.825 12.9742 104.366 12.9144 103.912 12.7948C103.468 12.6752 103.052 12.5067 102.663 12.2892C102.284 12.0609 101.96 11.8 101.689 11.5064L103.101 10.0713C103.36 10.354 103.668 10.5769 104.025 10.7399C104.382 10.8922 104.771 10.9683 105.193 10.9683C105.485 10.9683 105.707 10.9248 105.858 10.8378C106.02 10.7508 106.101 10.6312 106.101 10.479C106.101 10.2833 106.004 10.1365 105.809 10.0387C105.626 9.92996 105.388 9.83755 105.096 9.76144C104.804 9.67447 104.496 9.58205 104.171 9.4842C103.847 9.38635 103.539 9.25045 103.247 9.07649C102.955 8.90253 102.717 8.66334 102.533 8.35892C102.349 8.04362 102.257 7.64679 102.257 7.16841C102.257 6.65741 102.387 6.21708 102.646 5.84742C102.906 5.4669 103.274 5.16791 103.749 4.95046C104.225 4.73302 104.782 4.62429 105.42 4.62429C106.091 4.62429 106.707 4.74389 107.269 4.98308C107.842 5.2114 108.307 5.55387 108.664 6.01051L107.253 7.44565C107.004 7.1521 106.723 6.94552 106.41 6.82593C106.107 6.70633 105.809 6.64654 105.518 6.64654C105.236 6.64654 105.025 6.69003 104.885 6.777C104.744 6.85311 104.674 6.96727 104.674 7.11948C104.674 7.28256 104.766 7.41303 104.95 7.51088C105.134 7.60873 105.372 7.69571 105.664 7.77182C105.955 7.84792 106.264 7.94034 106.588 8.04906C106.912 8.15778 107.221 8.30456 107.513 8.48939C107.805 8.67422 108.043 8.92428 108.226 9.23957C108.41 9.544 108.502 9.94627 108.502 10.4464C108.502 11.2183 108.21 11.8326 107.626 12.2892C107.053 12.7459 106.274 12.9742 105.29 12.9742ZM95.6713 12.7785V4.8526H98.1531V5.45601C98.6397 4.94501 99.3155 4.68951 100.181 4.68951C100.559 4.68951 100.889 4.74931 101.17 4.8689C101.462 4.97763 101.716 5.15158 101.932 5.39077L100.456 7.26624C100.348 7.14665 100.213 7.05423 100.051 6.989C99.8887 6.92376 99.7048 6.89115 99.4994 6.89115C99.0885 6.89115 98.7586 7.02162 98.5099 7.28255C98.272 7.53261 98.1531 7.91314 98.1531 8.42414V12.7785H95.6713ZM87.9152 12.4197C88.5748 12.7785 89.3102 12.9579 90.1212 12.9579C90.943 12.9579 91.6784 12.7785 92.3272 12.4197C92.976 12.05 93.4897 11.5499 93.8681 10.9193C94.2466 10.2887 94.4359 9.58203 94.4359 8.79922C94.4359 8.01642 94.2466 7.31516 93.8681 6.69544C93.4897 6.06485 92.976 5.57016 92.3272 5.21137C91.6784 4.85259 90.943 4.6732 90.1212 4.6732C89.2994 4.6732 88.564 4.85802 87.9152 5.22768C87.2664 5.58647 86.7527 6.07572 86.3743 6.69544C85.9958 7.31516 85.8065 8.01642 85.8065 8.79922C85.8065 9.58203 85.9958 10.2887 86.3743 10.9193C86.7527 11.5499 87.2664 12.05 87.9152 12.4197ZM91.062 10.4627C90.7917 10.6149 90.4781 10.691 90.1212 10.691C89.7752 10.691 89.467 10.6149 89.1966 10.4627C88.9263 10.2996 88.7154 10.0767 88.564 9.79404C88.4126 9.50049 88.3369 9.17432 88.3369 8.81553C88.3369 8.44587 88.4126 8.11971 88.564 7.83703C88.7154 7.55435 88.9263 7.3369 89.1966 7.18469C89.467 7.02161 89.7752 6.94006 90.1212 6.94006C90.4781 6.94006 90.7862 7.02161 91.0458 7.18469C91.3161 7.3369 91.527 7.55435 91.6784 7.83703C91.8298 8.10883 91.9055 8.42957 91.9055 8.79922C91.9055 9.16888 91.8298 9.50049 91.6784 9.79404C91.5378 10.0767 91.3323 10.2996 91.062 10.4627ZM71.7046 12.4034C72.2778 12.7622 72.9266 12.9416 73.6511 12.9416C74.181 12.9416 74.6622 12.8383 75.0947 12.6317C75.3741 12.4983 75.6174 12.3331 75.8246 12.1361V12.7785H78.2577V4.8526H75.8246V5.51079C75.6108 5.30527 75.3621 5.1348 75.0785 4.99937C74.6568 4.7928 74.181 4.68951 73.6511 4.68951C72.9266 4.68951 72.2778 4.8689 71.7046 5.22769C71.1423 5.58647 70.6935 6.07573 70.3583 6.69545C70.0339 7.31517 69.8717 8.02186 69.8717 8.81554C69.8717 9.60922 70.0339 10.3159 70.3583 10.9356C70.6935 11.5554 71.1423 12.0446 71.7046 12.4034ZM75.4354 10.1691C75.1109 10.5171 74.6838 10.691 74.1539 10.691C73.8187 10.691 73.5159 10.6095 73.2456 10.4464C72.9752 10.2833 72.7644 10.0604 72.613 9.77774C72.4616 9.49506 72.3859 9.17433 72.3859 8.81554C72.3859 8.44588 72.4616 8.11972 72.613 7.83704C72.7752 7.55436 72.9861 7.33691 73.2456 7.1847C73.5159 7.02162 73.8241 6.94007 74.1702 6.94007C74.5162 6.94007 74.819 7.02162 75.0785 7.1847C75.3488 7.33691 75.5543 7.55436 75.6949 7.83704C75.8463 8.11972 75.922 8.44588 75.922 8.81554C75.922 9.35915 75.7598 9.81035 75.4354 10.1691ZM60.1923 12.7948C60.6465 12.9144 61.1061 12.9742 61.5711 12.9742C62.5551 12.9742 63.3337 12.7459 63.9068 12.2892C64.4908 11.8326 64.7827 11.2183 64.7827 10.4464C64.7827 9.94627 64.6908 9.544 64.507 9.23957C64.3231 8.92428 64.0852 8.67422 63.7933 8.48939C63.5013 8.30456 63.1931 8.15778 62.8687 8.04906C62.5443 7.94034 62.2361 7.84792 61.9441 7.77182C61.6522 7.69571 61.4143 7.60873 61.2304 7.51088C61.0466 7.41303 60.9547 7.28256 60.9547 7.11948C60.9547 6.96727 61.025 6.85311 61.1656 6.777C61.3061 6.69003 61.517 6.64654 61.7981 6.64654C62.0901 6.64654 62.3875 6.70633 62.6903 6.82593C63.0039 6.94552 63.285 7.1521 63.5337 7.44565L64.9449 6.01051C64.5881 5.55387 64.1231 5.2114 63.55 4.98308C62.9877 4.74389 62.3713 4.62429 61.7008 4.62429C61.0628 4.62429 60.5059 4.73302 60.0301 4.95046C59.5543 5.16791 59.1866 5.4669 58.9271 5.84742C58.6676 6.21708 58.5378 6.65741 58.5378 7.16841C58.5378 7.64679 58.6297 8.04362 58.8136 8.35892C58.9974 8.66334 59.2353 8.90253 59.5273 9.07649C59.8192 9.25045 60.1274 9.38635 60.4518 9.4842C60.7763 9.58205 61.0844 9.67447 61.3764 9.76144C61.6684 9.83755 61.9063 9.92996 62.0901 10.0387C62.2848 10.1365 62.3821 10.2833 62.3821 10.479C62.3821 10.6312 62.301 10.7508 62.1388 10.8378C61.9874 10.9248 61.7657 10.9683 61.4737 10.9683C61.052 10.9683 60.6627 10.8922 60.3059 10.7399C59.949 10.5769 59.6408 10.354 59.3813 10.0713L57.9701 11.5064C58.2404 11.8 58.5649 12.0609 58.9433 12.2892C59.3326 12.5067 59.749 12.6752 60.1923 12.7948ZM54.6242 12.7785V8.26105C54.6242 7.84791 54.4945 7.5163 54.235 7.26624C53.9862 7.00531 53.6672 6.87484 53.2779 6.87484C53.0076 6.87484 52.7697 6.93464 52.5642 7.05423C52.3588 7.16295 52.1966 7.32604 52.0776 7.54349C51.9587 7.75006 51.8992 7.98925 51.8992 8.26105V12.7785H49.4174V4.8526H51.8992V5.47354C52.0686 5.32167 52.2578 5.1908 52.4669 5.08091C52.9535 4.81998 53.4996 4.68951 54.1052 4.68951C54.6891 4.68951 55.2028 4.83085 55.6461 5.11353C56.1003 5.38534 56.4572 5.74956 56.7167 6.20619C56.9762 6.66283 57.106 7.16296 57.106 7.70657V12.7785H54.6242ZM41.1169 12.4034C41.69 12.7622 42.3389 12.9416 43.0634 12.9416C43.5933 12.9416 44.0745 12.8383 44.507 12.6317C44.7864 12.4983 45.0297 12.3331 45.2369 12.1361V12.7785H47.67V4.8526H45.2369V5.51079C45.0231 5.30527 44.7744 5.1348 44.4908 4.99937C44.0691 4.7928 43.5933 4.68951 43.0634 4.68951C42.3389 4.68951 41.69 4.8689 41.1169 5.22769C40.5546 5.58647 40.1058 6.07573 39.7706 6.69545C39.4462 7.31517 39.284 8.02186 39.284 8.81554C39.284 9.60922 39.4462 10.3159 39.7706 10.9356C40.1058 11.5554 40.5546 12.0446 41.1169 12.4034ZM44.8476 10.1691C44.5232 10.5171 44.0961 10.691 43.5662 10.691C43.231 10.691 42.9282 10.6095 42.6579 10.4464C42.3875 10.2833 42.1767 10.0604 42.0253 9.77774C41.8739 9.49506 41.7982 9.17433 41.7982 8.81554C41.7982 8.44588 41.8739 8.11972 42.0253 7.83704C42.1875 7.55436 42.3983 7.33691 42.6579 7.1847C42.9282 7.02162 43.2364 6.94007 43.5824 6.94007C43.9285 6.94007 44.2313 7.02162 44.4908 7.1847C44.7611 7.33691 44.9666 7.55436 45.1072 7.83704C45.2586 8.11972 45.3343 8.44588 45.3343 8.81554C45.3343 9.35915 45.1721 9.81035 44.8476 10.1691ZM33.0702 12.7785V4.8526H35.5519V5.45601C36.0385 4.94501 36.7144 4.68951 37.5795 4.68951C37.9579 4.68951 38.2878 4.74931 38.5689 4.8689C38.8609 4.97763 39.115 5.15158 39.3313 5.39077L37.8552 7.26624C37.7471 7.14665 37.6119 7.05423 37.4497 6.989C37.2875 6.92376 37.1037 6.89115 36.8982 6.89115C36.4873 6.89115 36.1575 7.02162 35.9088 7.28255C35.6709 7.53261 35.5519 7.91314 35.5519 8.42414V12.7785H33.0702ZM27.312 3.49902V12.7785H29.8587V3.49902H33.4434V1.26477H23.7273V3.49902H27.312Z" fill="url(#paint0_linear_313_6972)"/>
<path d="M2.84055 12.4011C2.84055 12.7176 3.09492 12.9742 3.40866 12.9742H4.54488C4.85861 12.9742 5.11299 12.7176 5.11299 12.4011V11.3018C5.11299 11.1405 5.1804 10.9866 5.29884 10.878L9.24815 7.25206C9.59046 6.90421 9.87756 6.59117 10.1095 6.3129C10.345 6.03459 10.5236 5.76212 10.6451 5.49543C10.7666 5.22489 10.8274 4.93308 10.8274 4.62C10.8274 4.27216 10.7519 3.97262 10.601 3.72138C10.4498 3.46631 10.2437 3.27111 9.98242 3.13584C9.72111 2.99672 9.42485 2.92715 9.09364 2.92715C8.74773 2.92715 8.44592 3.00057 8.18821 3.14746C7.93051 3.29431 7.7319 3.50496 7.59181 3.77938C7.56185 3.83819 7.53522 3.89937 7.51164 3.96296C7.48474 4.03572 7.46199 4.11159 7.4434 4.19065C7.37128 4.49866 7.12772 4.75916 6.81399 4.75916H5.6811C5.36736 4.75916 5.10855 4.50159 5.14544 4.18726C5.20869 3.64642 5.36542 3.1626 5.61535 2.73584C5.95045 2.1638 6.41953 1.72126 7.02315 1.40818C7.62676 1.09514 8.32248 0.938599 9.11028 0.938599C9.92001 0.938599 10.6249 1.08933 11.2249 1.39079C11.8285 1.68841 12.2976 2.10195 12.6327 2.63146C12.9675 3.16096 13.0665 3.69728 13.0665 4.3814C13.0665 4.82975 13.0504 5.34278 12.8809 5.77951C12.7153 6.21624 12.4191 6.70132 11.9922 7.23467C11.2665 8.13455 10.4432 8.96167 9.62291 9.78585L9.31611 10.0944C8.96271 10.4504 9.21375 11.0485 9.71307 11.0485H12.4984C12.8122 11.0485 13.0665 11.3051 13.0665 11.6216V12.4011C13.0665 12.7176 13.3209 12.9742 13.6346 12.9742H17.0574C19.1132 12.9742 20.6447 12.0297 20.9624 10.1258C21.0156 9.806 20.7535 9.53546 20.432 9.53546H19.2827C18.982 9.53546 18.7443 9.77627 18.6555 10.0659C18.3113 11.1877 17.1088 11.4711 15.9603 10.9778C14.5542 10.3737 14.699 8.45085 16.0169 7.87737C16.5684 7.63482 17.4569 7.63111 18.1795 7.6415C18.4932 7.64598 18.7476 7.39198 18.7476 7.07544V6.58568C18.7476 6.26913 18.4932 6.01255 18.1795 6.01255H17.2724C16.8691 6.01255 16.5165 5.942 16.215 5.80088C15.9096 5.65981 15.6702 5.4615 15.4968 5.20597C15.3234 4.94665 15.2385 4.64729 15.2424 4.30787C15.2385 3.97611 15.3121 3.68819 15.463 3.44413C16.2358 2.14089 18.1756 2.52998 18.6455 3.83539C18.7501 4.12562 18.9909 4.37734 19.2969 4.37734H20.4386C20.7576 4.37734 21.0184 4.11138 20.9707 3.79327C20.9008 3.32838 20.7538 2.87859 20.5011 2.52886C20.1393 2.02926 19.6567 1.64028 19.0536 1.3619C18.4503 1.07971 17.7737 0.938599 17.0236 0.938599H9.11028H3.32488C3.0841 0.938599 2.87356 1.09395 2.76843 1.31261C2.31544 2.2572 1.48047 2.9572 0.517623 3.20266C0.23024 3.27594 0 3.51948 0 3.81856V4.37734C0 4.69388 0.254373 4.95047 0.56811 4.95047H2.27244C2.58618 4.95047 2.84055 5.20705 2.84055 5.52359V12.4011Z" fill="#3C0822"/>
<defs>
<linearGradient id="paint0_linear_313_6972" x1="66.1958" y1="0.938583" x2="66.1958" y2="12.9742" gradientUnits="userSpaceOnUse">
<stop stop-color="#F363AA"/>
<stop offset="1" stop-color="#E471C9"/>
</linearGradient>
</defs>
</svg>
