<svg width="276" height="32" viewBox="0 0 276 32" fill="none" xmlns="http://www.w3.org/2000/svg">
<path fill-rule="evenodd" clip-rule="evenodd" d="M167.963 30.677V0.604431H174.266V30.677H167.963ZM206.05 30.6769V15.9306H201.518V10.5457H206.05V2.21986H212.354V10.5457H216.886V15.9306H212.354V30.6769H206.05ZM267.43 31.174C266.249 31.174 265.082 31.0222 263.928 30.7184C262.802 30.4146 261.745 29.9866 260.756 29.4343C259.795 28.8544 258.971 28.1916 258.284 27.446L261.868 23.8009C262.528 24.5189 263.31 25.085 264.217 25.4992C265.123 25.8858 266.112 26.0791 267.183 26.0791C267.925 26.0791 268.488 25.9686 268.872 25.7477C269.284 25.5268 269.49 25.223 269.49 24.8364C269.49 24.3394 269.243 23.9666 268.749 23.718C268.282 23.4419 267.677 23.2072 266.936 23.0139C266.194 22.7929 265.412 22.5582 264.588 22.3097C263.764 22.0611 262.981 21.716 262.239 21.2741C261.498 20.8323 260.893 20.2248 260.426 19.4515C259.96 18.6507 259.726 17.6428 259.726 16.4277C259.726 15.1298 260.056 14.0114 260.715 13.0725C261.374 12.106 262.308 11.3466 263.516 10.7943C264.725 10.242 266.139 9.96585 267.76 9.96585C269.463 9.96585 271.028 10.2696 272.457 10.8771C273.912 11.4571 275.093 12.3269 276 13.4867L272.415 17.1319C271.784 16.3863 271.07 15.8616 270.273 15.5579C269.504 15.2541 268.749 15.1022 268.007 15.1022C267.293 15.1022 266.757 15.2127 266.4 15.4336C266.043 15.6269 265.865 15.9168 265.865 16.3035C265.865 16.7177 266.098 17.0491 266.565 17.2976C267.032 17.5461 267.636 17.767 268.378 17.9603C269.119 18.1537 269.902 18.3884 270.726 18.6645C271.55 18.9407 272.333 19.3135 273.075 19.7829C273.816 20.2524 274.42 20.8875 274.887 21.6883C275.354 22.4616 275.588 23.4833 275.588 24.7536C275.588 26.7142 274.846 28.2745 273.363 29.4343C271.907 30.5941 269.93 31.174 267.43 31.174ZM242.999 30.677V10.5457H249.302V12.0784C250.538 10.7805 252.255 10.1315 254.452 10.1315C255.413 10.1315 256.251 10.2834 256.965 10.5872C257.707 10.8633 258.352 11.3052 258.901 11.9127L255.152 16.6762C254.878 16.3725 254.534 16.1378 254.122 15.9721C253.71 15.8064 253.243 15.7235 252.722 15.7235C251.678 15.7235 250.84 16.0549 250.208 16.7177C249.604 17.3528 249.302 18.3193 249.302 19.6172V30.677H242.999ZM223.298 29.7657C224.974 30.677 226.842 31.1326 228.902 31.1326C230.989 31.1326 232.857 30.677 234.505 29.7657C236.153 28.8268 237.457 27.5565 238.419 25.9548C239.38 24.3532 239.861 22.5582 239.861 20.5699C239.861 18.5817 239.38 16.8005 238.419 15.2265C237.457 13.6248 236.153 12.3683 234.505 11.457C232.857 10.5458 230.989 10.0901 228.902 10.0901C226.814 10.0901 224.946 10.5596 223.298 11.4985C221.651 12.4097 220.346 13.6524 219.385 15.2265C218.423 16.8005 217.943 18.5817 217.943 20.5699C217.943 22.5582 218.423 24.3532 219.385 25.9548C220.346 27.5565 221.651 28.8268 223.298 29.7657ZM231.291 24.795C230.604 25.1816 229.808 25.3749 228.902 25.3749C228.023 25.3749 227.24 25.1816 226.553 24.795C225.867 24.3808 225.331 23.8147 224.946 23.0967C224.562 22.3511 224.37 21.5226 224.37 20.6114C224.37 19.6725 224.562 18.844 224.946 18.126C225.331 17.408 225.867 16.8557 226.553 16.4691C227.24 16.0549 228.023 15.8478 228.902 15.8478C229.808 15.8478 230.591 16.0549 231.25 16.4691C231.937 16.8557 232.472 17.408 232.857 18.126C233.241 18.8164 233.433 19.631 233.433 20.5699C233.433 21.5088 233.241 22.3511 232.857 23.0967C232.5 23.8147 231.978 24.3808 231.291 24.795ZM182.125 29.7242C183.581 30.6355 185.228 31.0912 187.069 31.0912C188.415 31.0912 189.637 30.8288 190.735 30.3042C191.445 29.9652 192.063 29.5457 192.589 29.0454V30.677H198.769V10.5457H192.589V12.2175C192.046 11.6955 191.414 11.2625 190.694 10.9185C189.623 10.3939 188.415 10.1315 187.069 10.1315C185.228 10.1315 183.581 10.5872 182.125 11.4985C180.697 12.4097 179.557 13.6524 178.705 15.2265C177.881 16.8005 177.469 18.5955 177.469 20.6114C177.469 22.6272 177.881 24.4222 178.705 25.9962C179.557 27.5703 180.697 28.813 182.125 29.7242ZM191.601 24.0494C190.777 24.9331 189.692 25.3749 188.346 25.3749C187.494 25.3749 186.725 25.1678 186.039 24.7536C185.352 24.3394 184.816 23.7733 184.432 23.0553C184.047 22.3373 183.855 21.5226 183.855 20.6114C183.855 19.6724 184.047 18.844 184.432 18.126C184.844 17.408 185.38 16.8557 186.039 16.4691C186.725 16.0549 187.508 15.8478 188.387 15.8478C189.266 15.8478 190.035 16.0549 190.694 16.4691C191.381 16.8557 191.903 17.408 192.26 18.126C192.644 18.844 192.837 19.6724 192.837 20.6114C192.837 21.9921 192.425 23.1381 191.601 24.0494ZM152.884 30.7184C154.038 31.0222 155.205 31.174 156.386 31.174C158.885 31.174 160.863 30.5941 162.319 29.4343C163.802 28.2745 164.543 26.7142 164.543 24.7536C164.543 23.4833 164.31 22.4616 163.843 21.6883C163.376 20.8875 162.772 20.2524 162.03 19.7829C161.289 19.3135 160.506 18.9407 159.682 18.6645C158.858 18.3884 158.075 18.1537 157.334 17.9603C156.592 17.767 155.988 17.5461 155.521 17.2976C155.054 17.0491 154.82 16.7177 154.82 16.3035C154.82 15.9168 154.999 15.6269 155.356 15.4336C155.713 15.2127 156.249 15.1022 156.963 15.1022C157.704 15.1022 158.46 15.2541 159.229 15.5579C160.025 15.8616 160.739 16.3863 161.371 17.1319L164.955 13.4867C164.049 12.3269 162.868 11.4571 161.412 10.8771C159.984 10.2696 158.419 9.96585 156.716 9.96585C155.095 9.96585 153.681 10.242 152.472 10.7943C151.264 11.3466 150.33 12.106 149.671 13.0725C149.011 14.0114 148.682 15.1298 148.682 16.4277C148.682 17.6428 148.915 18.6507 149.382 19.4515C149.849 20.2248 150.453 20.8323 151.195 21.2741C151.937 21.716 152.719 22.0611 153.543 22.3097C154.367 22.5582 155.15 22.7929 155.892 23.0139C156.633 23.2072 157.238 23.4419 157.704 23.718C158.199 23.9666 158.446 24.3394 158.446 24.8364C158.446 25.223 158.24 25.5268 157.828 25.7477C157.444 25.9686 156.88 26.0791 156.139 26.0791C155.068 26.0791 154.079 25.8858 153.173 25.4992C152.266 25.085 151.483 24.5189 150.824 23.8009L147.24 27.446C147.927 28.1916 148.75 28.8544 149.712 29.4343C150.701 29.9866 151.758 30.4146 152.884 30.7184ZM138.742 30.677V19.203C138.742 18.1536 138.412 17.3114 137.753 16.6762C137.121 16.0135 136.311 15.6821 135.322 15.6821C134.635 15.6821 134.031 15.834 133.509 16.1378C132.987 16.4139 132.575 16.8281 132.273 17.3804C131.971 17.9051 131.82 18.5126 131.82 19.203V30.677H125.517V10.5457H131.82V12.1229C132.25 11.7372 132.731 11.4048 133.262 11.1257C134.498 10.4629 135.885 10.1315 137.423 10.1315C138.906 10.1315 140.211 10.4905 141.337 11.2085C142.491 11.8989 143.397 12.824 144.056 13.9838C144.715 15.1436 145.045 16.4139 145.045 17.7946V30.677H138.742ZM104.434 29.7242C105.89 30.6355 107.538 31.0912 109.378 31.0912C110.724 31.0912 111.946 30.8288 113.045 30.3042C113.754 29.9652 114.372 29.5457 114.899 29.0454V30.677H121.079V10.5457H114.899V12.2175C114.355 11.6955 113.724 11.2625 113.004 10.9185C111.932 10.3939 110.724 10.1315 109.378 10.1315C107.538 10.1315 105.89 10.5872 104.434 11.4985C103.006 12.4097 101.866 13.6524 101.015 15.2265C100.191 16.8005 99.7786 18.5955 99.7786 20.6114C99.7786 22.6272 100.191 24.4222 101.015 25.9962C101.866 27.5703 103.006 28.813 104.434 29.7242ZM113.91 24.0494C113.086 24.9331 112.001 25.3749 110.655 25.3749C109.804 25.3749 109.035 25.1678 108.348 24.7536C107.661 24.3394 107.126 23.7733 106.741 23.0553C106.357 22.3373 106.164 21.5226 106.164 20.6114C106.164 19.6724 106.357 18.844 106.741 18.126C107.153 17.408 107.689 16.8557 108.348 16.4691C109.035 16.0549 109.817 15.8478 110.696 15.8478C111.575 15.8478 112.344 16.0549 113.004 16.4691C113.69 16.8557 114.212 17.408 114.569 18.126C114.954 18.844 115.146 19.6724 115.146 20.6114C115.146 21.9921 114.734 23.1381 113.91 24.0494ZM83.9958 30.677V10.5457H90.2992V12.0784C91.5352 10.7805 93.2518 10.1315 95.4491 10.1315C96.4104 10.1315 97.2481 10.2834 97.9623 10.5872C98.7038 10.8633 99.3493 11.3052 99.8986 11.9127L96.1495 16.6762C95.8748 16.3725 95.5315 16.1378 95.1195 15.9721C94.7075 15.8064 94.2406 15.7235 93.7187 15.7235C92.675 15.7235 91.8373 16.0549 91.2056 16.7177C90.6014 17.3528 90.2992 18.3193 90.2992 19.6172V30.677H83.9958ZM69.3706 7.10775V30.677H75.8389V7.10775H84.9439V1.4329H60.2656V7.10775H69.3706Z" fill="url(#paint0_linear_1926_16891)"/>
<path d="M7.2148 29.7183C7.2148 30.5223 7.86089 31.174 8.65776 31.174H11.5437C12.3405 31.174 12.9866 30.5223 12.9866 29.7183V26.9264C12.9866 26.5165 13.1578 26.1257 13.4587 25.8498L23.4897 16.6402C24.3591 15.7567 25.0883 14.9616 25.6774 14.2548C26.2755 13.5479 26.7293 12.8559 27.0379 12.1785C27.3465 11.4913 27.5008 10.7501 27.5008 9.95495C27.5008 9.07144 27.3091 8.31063 26.9259 7.67252C26.5419 7.02463 26.0184 6.52886 25.3547 6.18528C24.691 5.83193 23.9385 5.65521 23.0972 5.65521C22.2186 5.65521 21.452 5.8417 20.7975 6.21478C20.143 6.58776 19.6385 7.12281 19.2827 7.81983C19.2066 7.96918 19.1389 8.12458 19.0791 8.2861C19.0107 8.47091 18.9529 8.66362 18.9057 8.86442C18.7225 9.64673 18.1039 10.3084 17.3071 10.3084H14.4296C13.6327 10.3084 12.9754 9.65419 13.0691 8.8558C13.2297 7.48211 13.6278 6.25325 14.2626 5.16929C15.1137 3.71635 16.3052 2.59233 17.8383 1.79713C19.3715 1.00203 21.1385 0.604431 23.1395 0.604431C25.1961 0.604431 26.9864 0.98728 28.5104 1.75298C30.0436 2.5089 31.235 3.55927 32.0861 4.90417C32.9365 6.24907 33.1881 7.6113 33.1881 9.34891C33.1881 10.4877 33.1472 11.7907 32.7167 12.9C32.2961 14.0093 31.5436 15.2414 30.4593 16.596C28.6161 18.8817 26.525 20.9825 24.4415 23.0758L23.6623 23.8595C22.7647 24.7639 23.4023 26.2829 24.6705 26.2829H31.7451C32.542 26.2829 33.1881 26.9346 33.1881 27.7386V29.7183C33.1881 30.5223 33.8342 31.174 34.631 31.174H43.3247C48.5463 31.174 52.4362 28.775 53.243 23.9393C53.3782 23.127 52.7124 22.4399 51.8958 22.4399H48.9768C48.213 22.4399 47.6092 23.0515 47.3838 23.7872C46.5094 26.6364 43.4551 27.3563 40.5381 26.1034C36.9667 24.5689 37.3345 19.685 40.6819 18.2284C42.0826 17.6124 44.3393 17.6029 46.1747 17.6293C46.9716 17.6407 47.6177 16.9956 47.6177 16.1916V14.9476C47.6177 14.1436 46.9716 13.4919 46.1747 13.4919H43.8708C42.8463 13.4919 41.9508 13.3127 41.1849 12.9543C40.4092 12.596 39.8012 12.0923 39.3608 11.4432C38.9205 10.7846 38.7049 10.0242 38.7147 9.16215C38.7049 8.31951 38.8916 7.5882 39.2749 6.9683C41.2378 3.65816 46.1648 4.64642 47.3584 7.96207C47.624 8.69925 48.2356 9.3386 49.0127 9.3386H51.9127C52.723 9.3386 53.3853 8.66309 53.2641 7.8551C53.0865 6.6743 52.7131 5.53189 52.0713 4.64358C51.1525 3.37464 49.9265 2.38665 48.3948 1.67959C46.8624 0.962846 45.1439 0.604431 43.2388 0.604431H23.1395H8.44498C7.83341 0.604431 7.29864 0.999008 7.03161 1.5544C5.88105 3.95358 3.76029 5.73153 1.31473 6.35498C0.584793 6.54112 0 7.15968 0 7.91934V9.3386C0 10.1426 0.646091 10.7943 1.44296 10.7943H5.77184C6.56871 10.7943 7.2148 11.446 7.2148 12.25V29.7183Z" fill="#3C0822"/>
<defs>
<linearGradient id="paint0_linear_1926_16891" x1="168.133" y1="0.604431" x2="168.133" y2="31.174" gradientUnits="userSpaceOnUse">
<stop stop-color="#F363AA"/>
<stop offset="1" stop-color="#E471C9"/>
</linearGradient>
</defs>
</svg>
