<svg width="48" height="42" viewBox="0 0 48 42" fill="none" xmlns="http://www.w3.org/2000/svg">
<g clip-path="url(#clip0_3935_22676)">
<path d="M42.5 5H47.5V27H34.5L28.5 33V27H25.5V5H29.5H42.5Z" fill="url(#paint0_linear_3935_22676)"/>
<path d="M5.5 13.5H0.5V35.5H13.5L19.5 41.5V35.5H22.5V13.5H18.5H5.5Z" fill="url(#paint1_linear_3935_22676)"/>
<path d="M12 31C13.933 31 15.5 29.433 15.5 27.5C15.5 25.567 13.933 24 12 24C10.067 24 8.5 25.567 8.5 27.5C8.5 29.433 10.067 31 12 31Z" fill="#3C0822"/>
<path d="M14.5 21H8.5V16L9.1 15.2C10.3 13.6 11.4 12.4 12.2 11.5C12.8 11 13.5 10.3 13.5 10V7C13.5 6.4 13.1 6 12.5 6H9.5C9 6 8.5 6.4 8.5 7V10H2.5V7C2.5 3.1 5.6 0 9.5 0H12.5C16.4 0 19.5 3.1 19.5 7V10C19.5 12.6 18.1 14.1 16.6 15.7C16 16.4 15.3 17.1 14.5 18.1V21Z" fill="#3C0822"/>
<path d="M31.7 16L34.7999 19.1L41.0999 12.7" stroke="#F6F6F6" stroke-width="2"/>
</g>
<defs>
<linearGradient id="paint0_linear_3935_22676" x1="36.5" y1="5" x2="36.5" y2="33" gradientUnits="userSpaceOnUse">
<stop stop-color="#F363AA"/>
<stop offset="1" stop-color="#E471C9"/>
</linearGradient>
<linearGradient id="paint1_linear_3935_22676" x1="11.5" y1="13.5" x2="11.5" y2="41.5" gradientUnits="userSpaceOnUse">
<stop stop-color="#F363AA"/>
<stop offset="1" stop-color="#E471C9"/>
</linearGradient>
<clipPath id="clip0_3935_22676">
<rect width="47" height="41.5" fill="white" transform="translate(0.5)"/>
</clipPath>
</defs>
</svg>
