<svg width="50" height="41" viewBox="0 0 50 41" fill="none" xmlns="http://www.w3.org/2000/svg">
<g clip-path="url(#clip0_3935_22685)">
<path d="M43.1 28.3C33.9 28.3 24.7 28.3 15.6 28.3C13.9 22 12.1 15.6 10.4 9.29999C23.1 9.29999 35.8 9.29999 48.4 9.29999C46.6 15.7 44.8 22 43.1 28.3Z" fill="url(#paint0_linear_3935_22685)" stroke="url(#paint1_linear_3935_22685)" stroke-width="2" stroke-miterlimit="10"/>
<path d="M15.5 28.3L8.30002 1.89998L0.400024 1.59998" stroke="url(#paint2_linear_3935_22685)" stroke-width="2" stroke-miterlimit="10"/>
<path d="M24 37C24 39 22.4 40.6 20.4 40.6C18.4 40.6 16.8 39 16.8 37C16.8 35 18.4 33.4 20.4 33.4C22.4 33.4 24 35 24 37Z" fill="#3C0822"/>
<path d="M41.1 37C41.1 39 39.5 40.6 37.5 40.6C35.5 40.6 33.9 39 33.9 37C33.9 35 35.5 33.4 37.5 33.4C39.5 33.4 41.1 35 41.1 37Z" fill="#3C0822"/>
<path d="M23.5 17.5L26.6 20.6L32.9 14.2" stroke="#F6F6F6" stroke-width="2"/>
</g>
<defs>
<linearGradient id="paint0_linear_3935_22685" x1="29.4" y1="9.29999" x2="29.4" y2="28.3" gradientUnits="userSpaceOnUse">
<stop stop-color="#F363AA"/>
<stop offset="1" stop-color="#E471C9"/>
</linearGradient>
<linearGradient id="paint1_linear_3935_22685" x1="29.4" y1="9.29999" x2="29.4" y2="28.3" gradientUnits="userSpaceOnUse">
<stop stop-color="#F363AA"/>
<stop offset="1" stop-color="#E471C9"/>
</linearGradient>
<linearGradient id="paint2_linear_3935_22685" x1="7.95003" y1="1.59998" x2="7.95003" y2="28.3" gradientUnits="userSpaceOnUse">
<stop stop-color="#F363AA"/>
<stop offset="1" stop-color="#E471C9"/>
</linearGradient>
<clipPath id="clip0_3935_22685">
<rect width="49.2" height="39.9" fill="white" transform="translate(0.400024 0.599976)"/>
</clipPath>
</defs>
</svg>
