<svg width="40" height="41" viewBox="0 0 40 41" fill="none" xmlns="http://www.w3.org/2000/svg">
<g clip-path="url(#clip0_3935_27196)">
<path d="M1.98453 11.4277C0.713125 14.0571 0 17.0068 0 20.1233C0 23.2398 0.713125 26.1896 1.98453 28.8189L20 30.5581L38.0155 28.8189C39.2869 26.1896 40 23.2398 40 20.1233C40 17.0068 39.2869 14.0571 38.0155 11.4277L20 9.68854L1.98453 11.4277Z" fill="#F0F0F0"/>
<path d="M1.98535 28.8189C5.2202 35.5088 12.071 40.1233 20.0001 40.1233C27.9293 40.1233 34.78 35.5088 38.0149 28.8189H1.98535Z" fill="#496E2D"/>
<path d="M1.98535 11.4277H38.0149C34.78 4.73774 27.9293 0.123291 20.0001 0.123291C12.0709 0.123291 5.2202 4.73774 1.98535 11.4277Z" fill="black"/>
<path d="M5.85785 5.98108C-1.95262 13.7915 -1.95262 26.4549 5.85785 34.2655C9.08543 31.0379 12.1896 27.9337 20 20.1233L5.85785 5.98108Z" fill="#D80027"/>
<path d="M25.2171 20.1233C25.2171 17.2094 27.265 14.7751 29.9997 14.1779C29.5794 14.0861 29.1433 14.0363 28.6954 14.0363C25.3336 14.0363 22.6084 16.7615 22.6084 20.1233C22.6084 23.4851 25.3336 26.2102 28.6954 26.2102C29.1432 26.2102 29.5793 26.1605 29.9997 26.0687C27.265 25.4715 25.2171 23.0372 25.2171 20.1233Z" fill="#D80027"/>
<path d="M30.2558 16.2102L31.1193 18.8675H33.9132L31.6529 20.5096L32.5163 23.1668L30.2558 21.5246L27.9956 23.1668L28.8591 20.5096L26.5986 18.8675H29.3925L30.2558 16.2102Z" fill="#D80027"/>
</g>
<defs>
<clipPath id="clip0_3935_27196">
<rect width="40" height="40" fill="white" transform="translate(0 0.123291)"/>
</clipPath>
</defs>
</svg>
