<svg width="40" height="41" viewBox="0 0 40 41" fill="none" xmlns="http://www.w3.org/2000/svg">
<g clip-path="url(#clip0_3935_27197)">
<path d="M0 20.1233C0 22.5697 0.440078 24.9131 1.24398 27.0798L20 28.8189L38.756 27.0798C39.5599 24.9131 40 22.5697 40 20.1233C40 17.6769 39.5599 15.3335 38.756 13.1668L20 11.4277L1.24398 13.1668C0.440078 15.3335 0 17.6769 0 20.1233H0Z" fill="#FFDA44"/>
<path d="M38.7562 13.1668C35.9303 5.55087 28.5995 0.123291 20.0002 0.123291C11.4009 0.123291 4.07 5.55087 1.24414 13.1668H38.7562Z" fill="#D80027"/>
<path d="M1.24414 27.0798C4.07 34.6957 11.4009 40.1233 20.0002 40.1233C28.5995 40.1233 35.9303 34.6957 38.7562 27.0798H1.24414Z" fill="#D80027"/>
</g>
<defs>
<clipPath id="clip0_3935_27197">
<rect width="40" height="40" fill="white" transform="translate(0 0.123291)"/>
</clipPath>
</defs>
</svg>
