<svg width="40" height="41" viewBox="0 0 40 41" fill="none" xmlns="http://www.w3.org/2000/svg">
<g clip-path="url(#clip0_3935_27198)">
<path d="M20 40.1233C31.0457 40.1233 40 31.169 40 20.1233C40 9.0776 31.0457 0.123291 20 0.123291C8.9543 0.123291 0 9.0776 0 20.1233C0 31.169 8.9543 40.1233 20 40.1233Z" fill="#F0F0F0"/>
<path d="M39.9996 20.1233C39.9996 11.524 34.5721 4.19311 26.9561 1.36725V38.8794C34.5721 36.0534 39.9996 28.7226 39.9996 20.1233Z" fill="#D80027"/>
<path d="M0 20.1233C0 28.7226 5.42758 36.0534 13.0435 38.8793V1.36725C5.42758 4.19311 0 11.524 0 20.1233Z" fill="#0052B4"/>
</g>
<defs>
<clipPath id="clip0_3935_27198">
<rect width="40" height="40" fill="white" transform="translate(0 0.123291)"/>
</clipPath>
</defs>
</svg>
