<svg width="40" height="41" viewBox="0 0 40 41" fill="none" xmlns="http://www.w3.org/2000/svg">
<g clip-path="url(#clip0_3935_27199)">
<path d="M20 40.1233C31.0457 40.1233 40 31.169 40 20.1233C40 9.0776 31.0457 0.123291 20 0.123291C8.9543 0.123291 0 9.0776 0 20.1233C0 31.169 8.9543 40.1233 20 40.1233Z" fill="#D80027"/>
<path d="M10.9453 12.2952L12.6719 17.6077H18.2578L13.7422 20.8967L15.4688 26.2092L10.9453 22.928L6.42188 26.2092L8.15625 20.8967L3.63281 17.6077H9.21875L10.9453 12.2952Z" fill="#FFDA44"/>
<path d="M23.7109 31.0999L22.3906 29.4749L20.4375 30.2327L21.5703 28.4749L20.25 26.842L22.2734 27.3811L23.4141 25.6233L23.5234 27.717L25.5547 28.2561L23.5938 29.0061L23.7109 31.0999Z" fill="#FFDA44"/>
<path d="M26.3359 26.3342L26.9609 24.3342L25.25 23.1233L27.3437 23.092L27.9609 21.092L28.6406 23.0764L30.7344 23.053L29.0547 24.303L29.7266 26.2874L28.0156 25.0764L26.3359 26.3342Z" fill="#FFDA44"/>
<path d="M29.875 14.803L28.9531 16.6858L30.4531 18.1467L28.3828 17.8499L27.4609 19.7249L27.1016 17.6624L25.0234 17.3655L26.8828 16.3889L26.5234 14.3186L28.0234 15.7795L29.875 14.803Z" fill="#FFDA44"/>
<path d="M23.7656 9.09985L23.6094 11.1858L25.5547 11.9749L23.5156 12.4749L23.3672 14.5686L22.2656 12.7874L20.2266 13.2874L21.5781 11.6858L20.4688 9.91235L22.4141 10.7014L23.7656 9.09985Z" fill="#FFDA44"/>
</g>
<defs>
<clipPath id="clip0_3935_27199">
<rect width="40" height="40" fill="white" transform="translate(0 0.123291)"/>
</clipPath>
</defs>
</svg>
